<svg xmlns="http://www.w3.org/2000/svg" viewBox="0 0 80 48">
  <path fill="#FF9900" d="M22.9 19.7c0 1 .1 1.8.3 2.4.2.6.5 1.2.9 1.9.1.2.2.4.2.6 0 .3-.2.5-.5.8l-1.7 1.1c-.2.2-.5.2-.7.2-.3 0-.5-.1-.8-.4-.4-.4-.7-.8-1-1.3-.3-.5-.5-1-.8-1.6-2.1 2.5-4.7 3.7-7.9 3.7-2.3 0-4.1-.6-5.4-1.9-1.3-1.3-2-3-2-5.2 0-2.3.8-4.2 2.5-5.6 1.6-1.4 3.8-2.1 6.6-2.1.9 0 1.9.1 2.9.2 1 .1 2 .4 3.1.6V12c0-2-.4-3.5-1.3-4.3-.9-.8-2.3-1.3-4.4-1.3-.9 0-1.9.1-2.9.4-1 .2-2 .5-2.9.9-.2.1-.4.1-.4.2-.1 0-.2 0-.2-.1-.3 0-.4-.2-.4-.7V5.6c0-.4.1-.6.2-.8.1-.2.3-.3.6-.5.9-.5 2.1-.9 3.4-1.2 1.3-.3 2.7-.5 4.2-.5 3.2 0 5.5.7 7 2.2 1.5 1.5 2.2 3.7 2.2 6.6v8.3zm-11 4.1c.9 0 1.8-.2 2.8-.5 1-.3 1.8-.9 2.6-1.7.4-.5.8-1.1.9-1.7.2-.6.3-1.4.3-2.3v-1.1c-.8-.2-1.6-.3-2.5-.5-.9-.1-1.7-.2-2.5-.2-1.8 0-3.1.4-4 1.1-.9.7-1.3 1.8-1.3 3.1 0 1.3.3 2.2 1 2.9.6.6 1.6.9 2.7.9zm21.7 2.9c-.4 0-.7-.1-.9-.2-.2-.1-.4-.4-.5-.8L26.3 3.5c-.1-.4-.2-.7-.2-.8 0-.3.2-.5.5-.5h2c.4 0 .7.1.9.2.2.1.3.4.5.8l5.7 22.5 5.3-22.5c.1-.4.3-.7.5-.8.2-.1.5-.2.9-.2h1.6c.4 0 .7.1.9.2.2.1.4.4.5.8l5.3 22.8 5.9-22.8c.1-.4.3-.7.5-.8.2-.1.5-.2.9-.2h1.9c.3 0 .5.2.5.5 0 .1 0 .2-.1.4 0 .1-.1.3-.2.6L53.5 26c-.1.4-.3.7-.5.8-.2.1-.5.2-.9.2h-1.7c-.4 0-.7-.1-.9-.2-.2-.1-.4-.4-.5-.8L44.2 3.7l-5.2 21.6c-.1.4-.3.7-.5.8-.2.1-.5.2-.9.2h-1.7zm30.7.6c-1 0-2.1-.1-3.1-.4-1-.2-1.8-.5-2.3-.8-.3-.2-.5-.4-.6-.6-.1-.2-.1-.4-.1-.6v-1.1c0-.5.2-.7.5-.7.1 0 .3 0 .4.1.1.1.3.1.5.2.7.3 1.5.6 2.3.8.9.2 1.7.3 2.5.3 1.4 0 2.4-.2 3.2-.7.7-.5 1.1-1.2 1.1-2.1 0-.6-.2-1.1-.6-1.6-.4-.4-1.2-.8-2.3-1.2l-3.3-1c-1.6-.5-2.8-1.3-3.6-2.3-.8-1-.1-2-.1-3.2 0-.9.2-1.7.6-2.4.4-.7.9-1.3 1.6-1.8.7-.5 1.4-.9 2.3-1.2.9-.2 1.8-.4 2.8-.4.5 0 1 0 1.5.1.5.1 1 .1 1.4.2.4.1.8.2 1.2.3.4.1.7.2.9.4.3.2.5.3.6.5.1.2.2.4.2.7v1c0 .5-.2.7-.5.7-.2 0-.5-.1-.8-.2-1.3-.6-2.7-.9-4.2-.9-1.2 0-2.2.2-2.9.6-.7.4-1 1-.1 1.9 0 .6.2 1.2.6 1.6.4.4 1.2.9 2.4 1.2l3.2 1c1.6.5 2.8 1.2 3.5 2.2.7.9 1 2 1 3.1 0 .9-.2 1.8-.6 2.5-.4.8-.9 1.4-1.6 1.9-.7.6-1.5 1-2.4 1.3-1 .3-2.1.5-3.2.5z"/>
  <path fill="#FF9900" d="M73.8 38.4c-8.9 6.6-21.8 10-32.9 10-15.6 0-29.6-5.8-40.2-15.3-.8-.8-.1-1.8.9-1.2 11.5 6.7 25.6 10.7 40.2 10.7 9.9 0 20.7-2.1 30.7-6.3 1.5-.6 2.7 1 1.3 2.1z"/>
  <path fill="#FF9900" d="M77.5 34.1c-1.1-1.5-7.5-.7-10.4-.4-.9.1-1-.6-.2-1.2 5.1-3.6 13.4-2.5 14.4-1.4 1 1.2-.3 9.6-5 13.6-.7.6-1.4.3-1.1-.5 1.1-2.7 3.5-8.6 2.3-10.1z"/>
</svg>
